<svg width="65" height="32" viewBox="0 0 65 32" fill="none" xmlns="http://www.w3.org/2000/svg">
<g id="Payment Icons">
<rect width="65" height="32" rx="2" fill="#FBFAF8"/>
<path id="Subtract" fill-rule="evenodd" clip-rule="evenodd" d="M26.6208 14.7265H29.9128L24.9907 4H21.188L16.25 14.7265H19.4768L20.4317 12.5355H25.6659L26.6208 14.7265ZM38.7021 14.7265H36.1514L33.123 6.78856V14.7265H30.2247V4H34.8831L37.4677 10.8341L40.0359 4H44.6454V14.7265H41.7484V6.78856L38.7021 14.7265ZM31.7651 17.2735V19.6793H25.3127V21.4265H31.6172V23.7701H25.3127V25.5943H31.7651V28H22.3818V17.2735H31.7651ZM44.6885 28H41.0175L38.285 24.674L35.5688 28H31.9968L36.5888 22.6513L31.9805 17.2735H35.6502L38.3664 20.568L41.0826 17.2735H44.6559L40.0463 22.5906L44.6885 28ZM23.032 6.52835L21.4349 10.206H24.6455L23.032 6.52835Z" fill="#006FAC"/>
</g>
</svg>
