<svg width="40" height="24" viewBox="0 0 40 24" fill="none" xmlns="http://www.w3.org/2000/svg">
<g id="Group">
<path id="Vector" fill-rule="evenodd" clip-rule="evenodd" d="M27.742 24C34.5119 24 40 18.6274 40 12C40 5.37258 34.5119 0 27.742 0C20.972 0 15.4839 5.37258 15.4839 12C15.4839 18.6274 20.972 24 27.742 24Z" fill="#F79E1B"/>
<path id="Vector_2" fill-rule="evenodd" clip-rule="evenodd" d="M12.2581 24C19.028 24 24.5161 18.6274 24.5161 12C24.5161 5.37258 19.028 0 12.2581 0C5.48812 0 0 5.37258 0 12C0 18.6274 5.48812 24 12.2581 24Z" fill="#EB001B"/>
<path id="Intersect" fill-rule="evenodd" clip-rule="evenodd" d="M19.9998 2.69604C17.2438 4.89649 15.4839 8.24708 15.4839 12.0001C15.4839 15.753 17.2438 19.1036 19.9998 21.3041C22.7557 19.1036 24.5156 15.753 24.5156 12.0001C24.5156 8.24708 22.7557 4.89649 19.9998 2.69604Z" fill="#FF5F00"/>
</g>
</svg>
