<svg width="22" height="24" viewBox="0 0 22 24" fill="none" xmlns="http://www.w3.org/2000/svg">
<g id="Group">
<path id="Vector" fill-rule="evenodd" clip-rule="evenodd" d="M6.3938 23.1864L6.83 20.5446L5.8583 20.523H1.21826L4.44292 1.02764C4.45297 0.968611 4.48545 0.913809 4.53287 0.874824C4.58054 0.835839 4.64128 0.814453 4.70483 0.814453H12.5286C15.1262 0.814453 16.9187 1.32972 17.8544 2.34689C18.2932 2.82407 18.5726 3.32285 18.7079 3.87154C18.8497 4.4474 18.852 5.13532 18.7137 5.97449L18.7037 6.03553V6.5733L19.1424 6.81033C19.5118 6.99724 19.8055 7.2111 20.0307 7.45592C20.406 7.86404 20.6487 8.38265 20.7513 8.99727C20.8573 9.6295 20.8223 10.382 20.6487 11.2339C20.4485 12.2136 20.1249 13.0671 19.6878 13.7652C19.2859 14.4086 18.7738 14.9424 18.1656 15.3558C17.585 15.7488 16.8953 16.0471 16.1154 16.238C15.3596 16.4256 14.498 16.5202 13.5529 16.5202H12.9441C12.5088 16.5202 12.0859 16.6697 11.7539 16.9377C11.421 17.2113 11.2009 17.5851 11.1334 17.9939L11.0873 18.2318L10.3166 22.8884L10.2818 23.0592C10.2724 23.1134 10.2565 23.1403 10.2332 23.1586C10.2124 23.1753 10.1825 23.1864 10.1533 23.1864H6.3938Z" fill="#28356A"/>
<path id="Vector_2" fill-rule="evenodd" clip-rule="evenodd" d="M19.5577 6.09766C19.5346 6.24001 19.5077 6.38548 19.4778 6.53496C18.4461 11.5861 14.9161 13.331 10.4078 13.331H8.1123C7.56091 13.331 7.09621 13.7126 7.01046 14.2312L5.50234 23.3526C5.4465 23.6932 5.72172 24 6.08199 24H10.1534C10.6353 24 11.0449 23.666 11.1208 23.2127L11.1608 23.0155L11.9274 18.3772L11.9767 18.1228C12.0517 17.6679 12.4622 17.3338 12.9442 17.3338H13.553C17.4975 17.3338 20.5855 15.8069 21.488 11.388C21.8649 9.54214 21.6698 8.00079 20.6722 6.91678C20.3703 6.58998 19.9958 6.31865 19.5577 6.09766Z" fill="#019DDE"/>
<g id="Group_2">
<path id="Vector_3" fill-rule="evenodd" clip-rule="evenodd" d="M18.4783 5.68732C18.3206 5.64343 18.158 5.60378 17.9912 5.56792C17.8235 5.53294 17.6517 5.50198 17.4749 5.4748C16.856 5.37945 16.1777 5.33423 15.4513 5.33423H9.31906C9.16789 5.33423 9.02444 5.36675 8.89617 5.42556C8.61324 5.55522 8.4032 5.81051 8.35227 6.12306L7.04764 14.0016L7.01025 14.2313C7.096 13.7126 7.5607 13.331 8.11209 13.331H10.4076C14.9158 13.331 18.4459 11.5852 19.4776 6.53496C19.5084 6.38548 19.5344 6.24002 19.5575 6.09766C19.2965 5.96556 19.0138 5.85262 18.7094 5.75638C18.6342 5.73254 18.5566 5.7096 18.4783 5.68732Z" fill="#00164C"/>
<path id="Vector_4" fill-rule="evenodd" clip-rule="evenodd" d="M8.35231 6.12308C8.40325 5.81053 8.61329 5.55524 8.89622 5.42648C9.02542 5.36744 9.16794 5.33492 9.3191 5.33492H15.4514C16.1778 5.33492 16.856 5.38036 17.4749 5.47571C17.6518 5.50266 17.8235 5.53385 17.9913 5.56883C18.1581 5.60447 18.3207 5.64435 18.4784 5.68801C18.5567 5.71029 18.6342 5.73345 18.7102 5.7564C19.0146 5.85264 19.2975 5.96647 19.5585 6.09768C19.8655 4.23109 19.5559 2.96018 18.4975 1.80935C17.3305 0.542224 15.2245 0 12.5295 0H4.70547C4.15502 0 3.68541 0.381607 3.60036 0.901108L0.341592 20.5969C0.277342 20.9866 0.592518 21.3381 1.00465 21.3381H5.83487L8.35231 6.12308Z" fill="#012F86"/>
</g>
</g>
</svg>
