<svg width="49" height="15" viewBox="0 0 49 15" fill="none" xmlns="http://www.w3.org/2000/svg">
<g id="Group">
<path id="Union" fill-rule="evenodd" clip-rule="evenodd" d="M35.5589 0.930552C34.7772 0.642649 33.5522 0.333252 32.0218 0.333252C28.1221 0.333252 25.3742 2.2609 25.3511 5.02172C25.3298 7.06476 27.3122 8.20223 28.8098 8.88325C30.3455 9.5784 30.8625 10.023 30.8545 10.6446C30.8447 11.5971 29.6284 12.0321 28.4939 12.0321C26.9139 12.0321 26.0751 11.8177 24.7787 11.2872L24.2697 11.0609L23.7157 14.242C24.6386 14.6379 26.342 14.9824 28.1123 14.9999C32.2616 14.9999 34.9553 13.0949 34.9853 10.1457C34.9997 8.52916 33.9488 7.29893 31.6724 6.28589C30.2918 5.62807 29.4473 5.18858 29.4566 4.52341C29.4566 3.93402 30.1708 3.30109 31.7157 3.30109C33.0081 3.28129 33.9419 3.55788 34.67 3.84635L35.0245 4.00925L35.5589 0.930552ZM17.2994 14.789L19.7672 0.581027H23.7135L21.2446 14.789H17.2994ZM42.631 0.594924H45.6809L48.875 14.7927H45.2123C45.2123 14.7927 44.8508 13.1614 44.7327 12.6642C44.4283 12.6642 43.1597 12.6627 41.9646 12.6612L41.9606 12.6612L41.9543 12.6612L41.9452 12.6611C40.8865 12.6598 39.8898 12.6586 39.6778 12.6586C39.5245 13.0426 38.8471 14.7927 38.8471 14.7927H34.7019L40.5632 1.77312C40.9794 0.847193 41.6856 0.594924 42.631 0.594924ZM40.8128 9.75244C41.1397 8.93398 42.386 5.78006 42.386 5.78006C42.3744 5.79854 42.4511 5.6031 42.5559 5.33618L42.556 5.33584L42.5564 5.33498C42.6662 5.05499 42.8068 4.69672 42.9088 4.42425L43.1751 5.6494C43.1751 5.6494 43.9314 9.04032 44.09 9.75244H40.8128ZM10.1254 10.28L13.9887 0.591365H18.1691L11.9562 14.7716L7.77979 14.7772L4.24731 2.35046C6.75256 3.58126 8.99437 6.0406 9.7132 8.31102L10.1254 10.28Z" fill="#1A1F71"/>
<path id="Vector" fill-rule="evenodd" clip-rule="evenodd" d="M6.54029 0.582031H0.175151L0.125 0.877288C5.07669 2.05435 8.35322 4.89606 9.71306 8.3113L8.32901 1.78116C8.09036 0.881247 7.3969 0.613141 6.54029 0.582031Z" fill="#F9A51A"/>
</g>
</svg>
